<svg xmlns="http://www.w3.org/2000/svg" xmlns:xlink="http://www.w3.org/1999/xlink" width="79.155" height="79.153" viewBox="0 0 79.155 79.153">
  <defs>
    <radialGradient id="radial-gradient" cx="0.077" cy="0.019" r="1.465" gradientTransform="matrix(1, 0, 0, -1, 0, 9.666)" gradientUnits="objectBoundingBox">
      <stop offset="0" stop-color="#f4f4f5"/>
      <stop offset="0.477" stop-color="#f7f8fa"/>
      <stop offset="0.715" stop-color="#fff"/>
    </radialGradient>
  </defs>
  <g id="Grupo_133750" data-name="Grupo 133750" transform="translate(-269.851 -4417.228)">
    <g id="Group_87331" data-name="Group 87331" transform="translate(269.851 4417.228)">
      <g id="Group_18531" data-name="Group 18531">
        <g id="Group_18423" data-name="Group 18423">
          <g id="Group_18421" data-name="Group 18421">
            <g id="Group_18420" data-name="Group 18420">
              <g id="Group_18419" data-name="Group 18419">
                <path id="Path_40936" data-name="Path 40936" d="M201.954,554.407a39.577,39.577,0,1,1-39.578-39.575h0A39.576,39.576,0,0,1,201.954,554.407Z" transform="translate(-122.8 -514.832)" fill="#fff"/>
              </g>
            </g>
          </g>
          <path id="Path_40937" data-name="Path 40937" d="M201.953,554.407a39.42,39.42,0,1,0,0,.312Z" transform="translate(-122.799 -514.832)" fill="url(#radial-gradient)"/>
          <path id="Path_40938" data-name="Path 40938" d="M190.028,551.858a30.209,30.209,0,1,0-30.209,30.209h0a30.1,30.1,0,0,0,30.209-29.984Z" transform="translate(-120.122 -512.151)" fill="none" stroke="#1d272b" stroke-miterlimit="10" stroke-width="2"/>
          <g id="Group_18422" data-name="Group 18422" transform="translate(7.012 22.22)">
            <path id="Path_40939" data-name="Path 40939" d="M195.973,530.78a39.581,39.581,0,0,1-68.14,39.411,39.456,39.456,0,0,0,68.14-39.411Z" transform="translate(-127.833 -530.78)" fill="#e7e9eb"/>
          </g>
        </g>
      </g>
      <g id="ok1v39" transform="translate(-2440.948 32.469)">
        <g id="Grupo_133089" data-name="Grupo 133089" transform="translate(2458.898 -14.002)">
          <path id="Trazado_170421" data-name="Trazado 170421" d="M2488.76-5.589v-.529q0-3.431,0-6.861a3.067,3.067,0,0,1,.043-.491.6.6,0,0,1,.638-.532.583.583,0,0,1,.629.583c.021.728.029,1.456.03,2.184,0,1.788,0,3.575,0,5.363,0,.08.013.16.023.284a7.305,7.305,0,0,1,6.186,2.515,6.81,6.81,0,0,1,1.682,4.368,6.9,6.9,0,0,1-2.281,5.41,7.193,7.193,0,0,1-5.585,1.869V16.05a4.3,4.3,0,0,0,2.7-.8,4.5,4.5,0,0,0,1.946-3.6c.023-.464.268-.719.677-.711s.624.266.647.746a4.467,4.467,0,0,0,3.535,4.258,7.466,7.466,0,0,0,.858.111c.489.05.763.316.725.714a.708.708,0,0,1-.794.614,5.791,5.791,0,0,1-4.386-2.2c-.213-.263-.4-.552-.6-.837a5.84,5.84,0,0,1-10.243-.025,2.222,2.222,0,0,0-.169.21,5.768,5.768,0,0,1-6.657,2.6.732.732,0,0,1-.544-.813c.006-2.067,0-4.133,0-6.2q0-2.294,0-4.588a.9.9,0,0,0-1.035-1.035c-.454,0-.909,0-1.364,0a.851.851,0,0,0-.944.869c-.012.137-.008.275-.008.413q0,5.5,0,10.994c0,.178-.02.356-.033.534a.64.64,0,0,1-1.239.1,9.719,9.719,0,0,1-.118-1.035,5.81,5.81,0,0,1-8.349-2.007c-.437.5-.84,1.039-1.314,1.5a5.569,5.569,0,0,1-3.769,1.515.7.7,0,0,1-.753-.659.654.654,0,0,1,.692-.667,4.419,4.419,0,0,0,4.045-2.705,5.566,5.566,0,0,0,.372-1.589c.073-.553.239-.817.663-.824s.646.244.676.8a4.478,4.478,0,0,0,3.474,4.184,4.253,4.253,0,0,0,4.121-1.18.662.662,0,0,0,.176-.428c.011-2.039,0-4.078.015-6.117a.46.46,0,0,0-.31-.462,6.951,6.951,0,0,1-3.329-3.826,7.105,7.105,0,0,1,3.351-8.666,7.47,7.47,0,0,1,3.487-.832q5.952-.011,11.9,0Zm-4.654,12.834c1.251,0,2.434.013,3.616,0a32.259,32.259,0,0,0,4.238-.127,5.627,5.627,0,0,0,4.581-6.727,5.719,5.719,0,0,0-5.8-4.636c-2.12-.008-4.24,0-6.36,0a2.556,2.556,0,0,0-.277.032A8.751,8.751,0,0,1,2484.106,7.245Zm4.637,1.358h-9.573v7.362c.112.01.206.016.3.028a4.471,4.471,0,0,0,5.052-4.261q.029-.773.644-.788c.42-.01.651.241.685.75a4.611,4.611,0,0,0,.778,2.4,4.335,4.335,0,0,0,2.115,1.654Zm-8.384-12.843a.687.687,0,0,0,.089.14,6.935,6.935,0,0,1,2.766,5.461,6.869,6.869,0,0,1-1.37,4.35.683.683,0,0,1-.964.259.71.71,0,0,1-.138-1.017c.168-.283.375-.546.518-.841a5.7,5.7,0,0,0-1.5-7.068,5.755,5.755,0,0,0-7.5.252,5.611,5.611,0,0,0-1.682,5.559,5.459,5.459,0,0,0,2.558,3.525,8.462,8.462,0,0,1,.01-1.039.614.614,0,0,0-.193-.578,4.516,4.516,0,0,1-1.333-3.744A4.571,4.571,0,0,1,2476.952-3,4.4,4.4,0,0,1,2480.5.131a4.374,4.374,0,0,1-1.145,4.621c-.082.084-.194.193-.2.292-.017.725-.009,1.45-.009,2.191.577,0,1.1-.005,1.62,0a3.343,3.343,0,0,0,2.879-1.557,7.536,7.536,0,0,0,.108-8.2A3.623,3.623,0,0,0,2480.359-4.239Zm-1.891,7.983a3.234,3.234,0,0,0-.056-4.551,3.246,3.246,0,0,0-4.5-.006,3.224,3.224,0,0,0-.087,4.548A4.7,4.7,0,0,1,2478.468,3.744Z" transform="translate(-2458.899 14.002)" fill="#1d272b"/>
          <path id="Trazado_170422" data-name="Trazado 170422" d="M2485.217,375.1a5.835,5.835,0,0,1-10.257-.011,5.8,5.8,0,0,1-10.2.06c-.412.483-.795,1-1.246,1.447a5.614,5.614,0,0,1-3.83,1.572.707.707,0,0,1-.752-.618.648.648,0,0,1,.649-.7,4.762,4.762,0,0,0,2.678-.924,4.473,4.473,0,0,0,1.791-3.459c.021-.473.255-.735.651-.739.426,0,.651.248.678.749a5,5,0,0,0,.065.531,4.44,4.44,0,0,0,7.772,2.242,4.434,4.434,0,0,0,1.081-2.74c.036-.52.24-.776.649-.782.436-.007.645.238.68.793a4.452,4.452,0,0,0,8.845.557c.029-.217.061-.435.076-.653.031-.439.263-.694.65-.7.4,0,.654.257.675.714a4.453,4.453,0,0,0,8.854.588c.027-.2.056-.408.07-.614.029-.44.257-.684.655-.686a.641.641,0,0,1,.669.717,5.788,5.788,0,0,1-5.446,5.7,5.641,5.641,0,0,1-5.231-2.7C2485.374,375.347,2485.309,375.243,2485.217,375.1Z" transform="translate(-2458.925 -339.839)" fill="#1d272b"/>
          <path id="Trazado_170423" data-name="Trazado 170423" d="M2662.643,247.41c0-1.209-.01-2.418,0-3.626a.622.622,0,0,1,.967-.567.933.933,0,0,1,.338.65c.024,2.378.02,4.757.011,7.136,0,.5-.258.762-.673.761s-.641-.252-.647-.769c-.013-1.195,0-2.39,0-3.585Z" transform="translate(-2645.794 -221.846)" fill="#1d272b"/>
          <path id="Trazado_170424" data-name="Trazado 170424" d="M2915.018,418.272a5.771,5.771,0,0,1-3.862-1.608c-.374-.363-.411-.691-.133-1.007a.676.676,0,0,1,1.022.029,4.72,4.72,0,0,0,3.013,1.255c.5.034.761.3.74.7A.719.719,0,0,1,2915.018,418.272Z" transform="translate(-2873.479 -379.937)" fill="#1d272b"/>
        </g>
      </g>
    </g>
  </g>
</svg>
