<svg xmlns="http://www.w3.org/2000/svg" width="376.877" height="248.4" viewBox="0 0 376.877 248.4">
  <g id="Grupo_133748" data-name="Grupo 133748" transform="translate(-175 -5805.33)">
    <path id="Trazado_151846" data-name="Trazado 151846" d="M405.425,336.041c14.146-15.414,18.171-35.419,10.68-53.085-4.736-11.169-13.824-21.544-14.986-33.191-2.324-23.285,26.971-42.111,33.048-65.044,2.671-10.079-.243-21.821-11.693-27.943-11.309-6.047-27.451-4.812-40.254-.578s-23.637,11.014-35.93,15.97-27.429,8.02-40.411,4.075c-13.149-4-20.608-14.066-24.786-23.882s-6.229-20.269-13.359-29.162c-11.752-14.656-36.808-22.646-60.158-20.579s-44.212,13.395-55.4,28.276-13.146,32.88-7.576,49.316c2.826,8.336,7.481,16.319,10.019,24.7s2.771,17.561-2.9,25.112c-11.85,15.791-43.111,17.993-59.482,31.536C78.727,272.744,78.3,289.8,85.97,303.546s22.078,24.9,36.446,35.508c67.016,1.62,135.232,1.727,202.248,3.347C350.71,343.031,379.41,337.142,405.425,336.041Z" transform="translate(94.039 5707.961)" fill="#a4a4b4" opacity="0.354" style="mix-blend-mode: multiply;isolation: isolate"/>
    <path id="Trazado_151847" data-name="Trazado 151847" d="M359.21,180.984c-.177,18.955,17.842,35.453,14.706,54.148-1.677,10-9.3,20.142-4.869,29.266,3.919,8.073,15.143,9.473,23.725,6.848,20.088-6.146,32.3-26.679,38.138-46.859,5.493-18.981,6.856-40.183-1.94-57.878-7.088-14.256-23.442-26.842-40.048-25.678C373.711,141.9,359.343,166.706,359.21,180.984Z" transform="translate(116.577 5704.047)" fill="#a4a4b4" opacity="0.31" style="mix-blend-mode: multiply;isolation: isolate"/>
    <path id="Trazado_151848" data-name="Trazado 151848" d="M117.056,148.336c-13.418,22.388-14.024,51.895-1.534,74.813,3.947,7.242,9.277,13.99,16.475,18.017s16.482,4.925,23.646.839c10.864-6.2,13.267-20.815,12.4-33.293s-3.692-25.559,1.113-37.107c3.133-7.527,9.147-13.4,14.483-19.56s10.316-13.359,10.592-21.508c.715-21.123-21.711-19.545-35.226-15.158A76.808,76.808,0,0,0,117.056,148.336Z" transform="translate(96.112 5708.8)" fill="#a4a4b4" opacity="0.31" style="mix-blend-mode: multiply;isolation: isolate"/>
    <g id="Grupo_107069" data-name="Grupo 107069" transform="translate(182.507 5805.33)" style="mix-blend-mode: multiply;isolation: isolate">
      <path id="Trazado_151849" data-name="Trazado 151849" d="M401.517,338.241l-1.441-.946c3.965-3.118,10.294-10.264,8.152-23.113-.953-5.72-3.318-11.37-5.6-16.834-1.02-2.441-2.077-4.965-3-7.472-9.833-26.744-5.531-56.246,11.8-80.941,1.539-2.191,3.205-4.391,4.817-6.517,4.777-6.3,9.716-12.823,11.84-19.864,3.725-12.357-3.639-21.618-12.056-24.994-8.076-3.24-19.476-2.745-31.276,1.359-4.316,1.5-8.512,3.337-12.569,5.112a136.174,136.174,0,0,1-16.858,6.491c-23.42,6.759-52.7,1.015-68.109-13.36-7.4-6.908-11.586-15.257-15.629-23.331-1.566-3.128-3.187-6.364-4.968-9.46-5.541-9.625-15.683-21.706-32.531-24.6-14.8-2.541-29.8,3.043-39.766,8.174-19.073,9.817-32.518,23.112-37.859,37.436-3.6,9.659-3.746,20.172-3.886,30.339-.209,15.141-.425,30.8-12.31,43.406-5.407,5.736-12.844,10.312-20.035,14.739-6.736,4.145-13.7,8.431-18.893,13.627-11.765,11.772-14.649,28.438-7.912,45.726,6.054,15.533,18.393,29.315,30.326,42.644l-1.64.759C110.1,323.209,97.68,309.336,91.548,293.6c-6.9-17.7-3.907-34.8,8.206-46.924,5.329-5.333,12.385-9.675,19.207-13.874,7.095-4.366,14.43-8.881,19.689-14.46,11.556-12.259,11.759-27.012,11.974-42.632.142-10.255.288-20.858,3.954-30.69,5.457-14.636,19.168-28.207,38.607-38.213,10.3-5.3,25.833-11.06,41.354-8.4,17.648,3.027,28.166,15.5,33.88,25.424,1.8,3.126,3.428,6.377,5,9.521,3.992,7.972,8.119,16.215,15.338,22.949,14.894,13.9,43.2,19.448,65.839,12.914a134.62,134.62,0,0,0,16.571-6.387c4.1-1.793,8.331-3.647,12.732-5.178,12.379-4.305,24.434-4.789,33.075-1.322,9.026,3.621,16.949,13.463,13.013,26.518-2.184,7.239-7.191,13.847-12.035,20.239-1.6,2.117-3.263,4.305-4.788,6.477-17.12,24.392-21.368,53.533-11.655,79.95.912,2.484,1.964,5,2.98,7.427,2.31,5.521,4.7,11.23,5.674,17.071C412.4,327.419,405.706,334.947,401.517,338.241Z" transform="translate(-87.906 -97.739)" fill="#a4a4b4"/>
    </g>
    <g id="Grupo_127421" data-name="Grupo 127421" transform="translate(194.86 5856.759)">
      <path id="Trazado_163215" data-name="Trazado 163215" d="M836.056-268.439c-.312,1.421-.7,2.83-.917,4.266a9.878,9.878,0,0,1-3.148,6.028c-7.706,6.967-15.481,13.859-23.236,20.772-3.679,3.28-7.347,6.571-11.069,9.8a1.533,1.533,0,0,0-.433,1.985q7.794,22.478,15.546,44.97a11.582,11.582,0,0,1-7.786,15.278,11.447,11.447,0,0,1-13.827-6.943c-2.5-6.891-4.828-13.842-7.219-20.771q-3.5-10.151-6.979-20.31c-1.511-4.392-3.1-8.759-4.53-13.178-1.657-5.119-.2-9.415,3.758-12.944q12.048-10.737,24.1-21.472c1.251-1.114,2.483-2.251,3.773-3.317a.953.953,0,0,0,.322-1.268,104.292,104.292,0,0,0-8.943-18.3,21.344,21.344,0,0,0-1.528-2.478,1.893,1.893,0,0,1-.023-2.488c3.445-5.94,6.906-11.874,10.2-17.9a9.369,9.369,0,0,0-3.936-12.707,9.488,9.488,0,0,0-12.763,3.58q-6.221,10.8-12.376,21.631a1.022,1.022,0,0,1-1.183.616c-1.894-.244-3.793-.439-5.82-.667.449-1.243.874-2.451,1.321-3.65q4.411-11.854,8.835-23.7a12.454,12.454,0,0,1,7.553-7.334c6.033-2.353,11.87-1.633,17.53,1.355,4.015,2.119,6.964,5.4,9.829,8.792a110.168,110.168,0,0,1,12.521,17.7,103.061,103.061,0,0,1,7.781,18.373c.881,2.733,1.579,5.526,2.337,8.3.157.573.214,1.173.316,1.76Z" transform="translate(-514.008 359.268)" fill="#1d272b"/>
      <path id="Trazado_163216" data-name="Trazado 163216" d="M-494.017,117.933a9.177,9.177,0,0,1,2.572-4.3,7.557,7.557,0,0,1,4.991-1.807c4.9.011,9.793.033,14.688,0a2.918,2.918,0,0,1,2.245.957c2.717,2.588,5.546,5.058,8.337,7.569,2.255,2.029,4.514,4.052,6.706,6.309h-1.151q-15.192,0-30.383-.006c-4.241-.006-6.725-1.937-7.86-6.036a1.282,1.282,0,0,0-.145-.264Z" transform="translate(494.017 6.106)" fill="#008f85"/>
      <path id="Trazado_163217" data-name="Trazado 163217" d="M-381.135-260.133c-2.6-1.5-5.128-2.947-7.649-4.4-4.857-2.8-5.621-7.971-1.926-12.194,6.511-7.441,12.943-14.949,19.42-22.419a8.447,8.447,0,0,1,8.52-2.841c2.815.569,5.567,1.447,8.348,2.182,7.634,2.019,15.238,4.162,22.917,5.991a9.315,9.315,0,0,1,6.806,5.562c4.019,8.581,8.209,17.08,12.285,25.634a1.728,1.728,0,0,0,1.542,1.135c4.56.533,9.116,1.1,13.673,1.655,3.824.467,7.649.923,11.47,1.414a7.43,7.43,0,0,1,6.417,8.132,7.342,7.342,0,0,1-7.347,6.632c-2.87-.117-5.724-.63-8.584-.978q-8.778-1.069-17.555-2.152c-1.861-.231-3.73-.426-5.573-.762a7.009,7.009,0,0,1-5.182-4.049c-1.539-3.123-3.029-6.27-4.545-9.405-.153-.316-.335-.617-.6-1.1-1.071,4.038-2.086,7.87-3.1,11.7q-2.2,8.291-4.416,16.58a1.347,1.347,0,0,0,.428,1.572q11.086,9.852,22.12,19.761a55.983,55.983,0,0,1,4.471,4.322c1.708,1.918,2.09,4.441,2.694,6.84q4.882,19.4,9.759,38.8a50.94,50.94,0,0,1,1.7,7.929,11.236,11.236,0,0,1-10.04,12.2,11.44,11.44,0,0,1-12.672-8.639c-1.963-7.686-3.877-15.385-5.813-23.078-1.688-6.708-3.366-13.419-5.088-20.118a2.992,2.992,0,0,0-.9-1.37q-12.915-11.575-25.862-23.112c-1.5-1.344-1.493-1.357-3.419-.208,1.685,1.509,3.343,2.994,5,4.478q9.219,8.246,18.419,16.513a1.468,1.468,0,0,1,.34,1.185q-2.517,12.088-5.107,24.16c-1.511,7.1-2.973,14.218-4.554,21.306A11.444,11.444,0,0,1-356.4-142.3a11.656,11.656,0,0,1-11.02-9.454c-.489-2.519.149-4.929.663-7.348q3.946-18.562,7.935-37.115a1.358,1.358,0,0,0-.554-1.459q-10.623-9.462-21.226-18.947c-1.525-1.362-3.052-2.723-4.56-4.1a11.838,11.838,0,0,1-2.947-12.729c.844-2.345,1.23-4.853,1.864-7.276C-384.565-247.171-382.857-253.6-381.135-260.133Z" transform="translate(413.359 336.794)" fill="#1d272b"/>
      <path id="Trazado_163218" data-name="Trazado 163218" d="M50.763,126.734v58.391h-28.6c.092-.231.165-.47.277-.69a16.585,16.585,0,0,0,1.241-12.093c-2.142-8.326-4.2-16.675-6.289-25.014q-1.637-6.525-3.276-13.049c-.652-2.589-1.383-5.161-1.954-7.767A17.889,17.889,0,0,0,5.7,116.269c-1.6-1.312-3.107-2.742-4.838-4.28.522-.034.828-.071,1.135-.071q55.2,0,110.4,0,13.737,0,27.474.007a7.129,7.129,0,0,1,6.823,4.295,7.373,7.373,0,0,1-6.132,10.471c-.7.047-1.408.042-2.112.042q-43.123,0-86.247,0Z" transform="translate(98.751 6.029)" fill="#008f85"/>
      <path id="Trazado_163219" data-name="Trazado 163219" d="M-80.111-29.862l-.954-.228c.76-2.9,1.5-5.751,2.257-8.59a1.2,1.2,0,0,1,1.876-.361c2.612,3.164,6.14,4.121,10.041,4.54,7.26.78,14.494,1.8,21.747,2.655a54.1,54.1,0,0,0,8.889.693,11.576,11.576,0,0,0,10.48-9.338c.153-.752.462-.882,1.121-.89,9.188-.115,18.377-.276,27.565-.366a93.343,93.343,0,0,1,10.017.2,17.245,17.245,0,0,1,10.884,5.075c2.9,2.943,3.5,6.546,2.941,10.425a19.678,19.678,0,0,1-6.206,11.664,2.6,2.6,0,0,1-1.965.756q-35.824-.027-71.647,0a1.542,1.542,0,0,1-1.5-.756A8.245,8.245,0,0,1-55.5-15.81c-.4-1.192-1.2-1.318-2.315-1.248-4.05.253-8.1.428-12.159.582a2.234,2.234,0,0,1-1.433-.451q-4.165-3.637-8.234-7.383a1.726,1.726,0,0,1-.449-1.117C-80.141-26.9-80.111-28.372-80.111-29.862Z" transform="translate(164.184 128.795)" fill="#1d272b"/>
      <path id="Trazado_163220" data-name="Trazado 163220" d="M665.442-263.644a23.291,23.291,0,0,1-1.353,3.718q-7.787,13.775-15.7,27.481a7.462,7.462,0,0,1-7.658,3.689c-7.485-.888-14.977-1.71-22.466-2.569-5.59-.641-11.193-1.2-16.763-1.983a7.237,7.237,0,0,1-5.965-8.578,7.5,7.5,0,0,1,8.333-6.027c7.95.947,15.909,1.829,23.865,2.732,3.129.355,6.263.664,9.385,1.072a.972.972,0,0,0,1.176-.573q6.462-11.347,12.95-22.68a7.409,7.409,0,0,1,8.193-3.661,7.326,7.326,0,0,1,5.744,7.289Z" transform="translate(-376.145 312.066)" fill="#1d272b"/>
      <path id="Trazado_163221" data-name="Trazado 163221" d="M497.922-75.665,494.737-70.8l5.618,3.7,4.8-7.237a20.149,20.149,0,0,1,9.912,7.957c4.339,6.787,4.7,13.88,1.167,21.107a28.871,28.871,0,0,1-2.817,4.139,1.3,1.3,0,0,1-.935.4q-14.79.032-29.58-.006a1.662,1.662,0,0,1-1.054-.578,20.739,20.739,0,0,1-1.971-24.347,20.66,20.66,0,0,1,16.133-9.986C496.57-75.719,497.145-75.665,497.922-75.665Z" transform="translate(-281.42 155.871)" fill="#1d272b"/>
      <path id="Trazado_163222" data-name="Trazado 163222" d="M-181.58-409.436c-2-2.414-4.944-2.91-7.8-3.65-7.383-1.911-14.75-3.887-22.13-5.808a1.77,1.77,0,0,1-1.422-1.3,20.974,20.974,0,0,1,15.683-27.034,20.714,20.714,0,0,1,21.581,8.985,20.786,20.786,0,0,1-5.631,28.716A1.448,1.448,0,0,1-181.58-409.436Z" transform="translate(270.331 452.976)" fill="#1d272b"/>
      <path id="Trazado_163223" data-name="Trazado 163223" d="M615.837-436.461c-6.552-5.422-9.445-12.252-7.884-20.494,1.623-8.564,6.923-14.208,15.39-16.383,8.067-2.072,14.974.381,20.821,6.388Z" transform="translate(-385.818 474.061)" fill="#1d272b"/>
      <path id="Trazado_163224" data-name="Trazado 163224" d="M731.086-430.935c4.061,6.153,5.066,12.445,2.751,19.12-2.1,6.058-6.283,10.188-12.389,12.653a20.628,20.628,0,0,0-6.552-14.375Z" transform="translate(-471.566 439.615)" fill="#1d272b"/>
      <path id="Trazado_163225" data-name="Trazado 163225" d="M-441.75,20.491c-3.568,0-7.088.021-10.607-.031a1.633,1.633,0,0,1-1.088-.681,11.6,11.6,0,0,1,7.959-18.166c1.482-.209,2.963-.428,4.592-.663-.223.881-.4,1.612-.592,2.342-.548,2.137-1.185,4.256-1.626,6.414a15.9,15.9,0,0,0,1.085,9.827c.095.214.19.428.274.647A1.273,1.273,0,0,1-441.75,20.491Z" transform="translate(463.306 94.661)" fill="#1d272b"/>
      <path id="Trazado_163226" data-name="Trazado 163226" d="M682.991-63.828l-18.41,10.713a24.479,24.479,0,0,0-7.695-12.56,3.56,3.56,0,0,1,3.086-1.023c5.715.707,11.442,1.322,17.164,1.974,1.923.219,3.845.452,5.767.679Z" transform="translate(-425.233 148.721)" fill="#1d272b"/>
      <path id="Trazado_163227" data-name="Trazado 163227" d="M652.8-211.364l7.808-11.867,2.072,1.349c-2.315,3.513-4.586,6.975-6.889,10.414a1.1,1.1,0,0,1-.825.356C654.3-211.129,653.643-211.257,652.8-211.364Z" transform="translate(-421.967 273.718)" fill="#1d272b"/>
      <path id="Trazado_163228" data-name="Trazado 163228" d="M586.339-82.367a2.587,2.587,0,0,1-.166.382c-1.179,1.815-2.362,3.626-3.584,5.5l-2.071-1.374,3.895-5.892Z" transform="translate(-364.236 162.313)" fill="#1d272b"/>
    </g>
    <g id="Grupo_128125" data-name="Grupo 128125" transform="translate(403.295 5975.051)">
      <g id="Grupo_91938" data-name="Grupo 91938" transform="translate(0 0)">
        <g id="Grupo_91937" data-name="Grupo 91937">
          <path id="Trazado_151023" data-name="Trazado 151023" d="M2025.977,2136.488a5.724,5.724,0,0,1-5-8.6l38.8-67.2a5.77,5.77,0,0,1,9.991.007l38.8,67.211a5.716,5.716,0,0,1-5,8.582Z" transform="translate(-2020.21 -2057.808)" fill="#1d272b"/>
          <path id="Trazado_151024" data-name="Trazado 151024" d="M2139.513,2165.748a3.338,3.338,0,0,1-2.829,1.706h-77.608a3.359,3.359,0,0,1-2.828-5.009l38.8-67.228a3.28,3.28,0,0,1,2.2-1.582,3.188,3.188,0,0,1,.626-.066,3.263,3.263,0,0,1,2.829,1.632l38.8,67.244A3.334,3.334,0,0,1,2139.513,2165.748Z" transform="translate(-2053.31 -2091.058)" fill="#db8804"/>
        </g>
      </g>
      <g id="Grupo_91939" data-name="Grupo 91939" transform="translate(39.751 24.024)">
        <path id="Trazado_151026" data-name="Trazado 151026" d="M2594.136,2427.3l-3.381-.081a1.872,1.872,0,0,1-1.771-1.777l-1.238-23.824a1.547,1.547,0,0,1,.488-1.228,1.621,1.621,0,0,1,1.291-.405l5.824.406a1.782,1.782,0,0,1,1.261.565,1.8,1.8,0,0,1,.474,1.3l-1.2,23.39A1.723,1.723,0,0,1,2594.136,2427.3Z" transform="translate(-2587.646 -2399.979)" fill="#fff"/>
        <path id="Trazado_151027" data-name="Trazado 151027" d="M2587.649,2856.448a4.831,4.831,0,0,1,3.56-1.172,5.029,5.029,0,0,1,3.585,1.244,4.712,4.712,0,0,1,1.222,3.514,4.612,4.612,0,0,1-1.249,3.454,4.872,4.872,0,0,1-3.558,1.228,4.814,4.814,0,0,1-3.546-1.271,4.7,4.7,0,0,1-1.285-3.488A4.628,4.628,0,0,1,2587.649,2856.448Z" transform="translate(-2586.378 -2823.309)" fill="#fff"/>
      </g>
    </g>
    <path id="Trazado_173960" data-name="Trazado 173960" d="M3.779-4.509V0H1.143V-12.8H6.135a5.776,5.776,0,0,1,2.536.527,3.886,3.886,0,0,1,1.683,1.5,4.178,4.178,0,0,1,.589,2.21A3.674,3.674,0,0,1,9.655-5.594,5.363,5.363,0,0,1,6.091-4.509Zm0-2.136H6.135a2.316,2.316,0,0,0,1.6-.492,1.79,1.79,0,0,0,.549-1.406,2.111,2.111,0,0,0-.554-1.521,2.068,2.068,0,0,0-1.529-.6H3.779Zm14.15-.483a6.9,6.9,0,0,0-.914-.07,1.86,1.86,0,0,0-1.89.976V0h-2.54V-9.51h2.4l.07,1.134a2.354,2.354,0,0,1,2.118-1.31,2.662,2.662,0,0,1,.791.114Zm.51,2.285a5.64,5.64,0,0,1,.545-2.522,3.989,3.989,0,0,1,1.569-1.714,4.577,4.577,0,0,1,2.377-.606,4.33,4.33,0,0,1,3.142,1.178,4.727,4.727,0,0,1,1.358,3.2l.018.65a4.97,4.97,0,0,1-1.222,3.511A4.247,4.247,0,0,1,22.948.176a4.268,4.268,0,0,1-3.283-1.318,5.058,5.058,0,0,1-1.226-3.586Zm2.54.18a3.555,3.555,0,0,0,.51,2.073,1.682,1.682,0,0,0,1.459.717,1.686,1.686,0,0,0,1.441-.709,3.89,3.89,0,0,0,.519-2.267,3.519,3.519,0,0,0-.519-2.06,1.686,1.686,0,0,0-1.459-.731,1.658,1.658,0,0,0-1.441.726A3.955,3.955,0,0,0,20.979-4.662Zm11.988,2.79a1.666,1.666,0,0,0,1.143-.387,1.355,1.355,0,0,0,.457-1.028h2.382a3.258,3.258,0,0,1-.527,1.771A3.48,3.48,0,0,1,35-.268a4.442,4.442,0,0,1-1.991.444,4.129,4.129,0,0,1-3.217-1.3A5.13,5.13,0,0,1,28.617-4.7v-.167a5.071,5.071,0,0,1,1.169-3.507,4.08,4.08,0,0,1,3.208-1.31A4,4,0,0,1,35.855-8.67a3.594,3.594,0,0,1,1.094,2.7H34.567a1.745,1.745,0,0,0-.457-1.206,1.524,1.524,0,0,0-1.16-.464,1.53,1.53,0,0,0-1.34.647,3.749,3.749,0,0,0-.453,2.1v.264a3.8,3.8,0,0,0,.448,2.113A1.549,1.549,0,0,0,32.968-1.872ZM42.776.176a4.668,4.668,0,0,1-3.406-1.283,4.561,4.561,0,0,1-1.314-3.419v-.246a5.745,5.745,0,0,1,.554-2.562,4.064,4.064,0,0,1,1.569-1.74A4.4,4.4,0,0,1,42.5-9.686a3.947,3.947,0,0,1,3.072,1.23,5,5,0,0,1,1.121,3.489v1.037H40.632a2.36,2.36,0,0,0,.743,1.494,2.245,2.245,0,0,0,1.569.563,2.742,2.742,0,0,0,2.294-1.063l1.248,1.4A3.813,3.813,0,0,1,44.938-.277,5.075,5.075,0,0,1,42.776.176Zm-.29-7.813a1.587,1.587,0,0,0-1.226.512,2.651,2.651,0,0,0-.6,1.466h3.533v-.2a1.891,1.891,0,0,0-.457-1.311A1.638,1.638,0,0,0,42.486-7.638Zm10.793,5.01a.818.818,0,0,0-.461-.734,5.241,5.241,0,0,0-1.481-.479q-3.393-.712-3.393-2.883a2.613,2.613,0,0,1,1.05-2.114,4.237,4.237,0,0,1,2.747-.848,4.56,4.56,0,0,1,2.9.853,2.687,2.687,0,0,1,1.085,2.215h-2.54a1.229,1.229,0,0,0-.352-.9,1.488,1.488,0,0,0-1.1-.356,1.52,1.52,0,0,0-.993.29.916.916,0,0,0-.352.738.783.783,0,0,0,.4.681,4.114,4.114,0,0,0,1.349.448,11.019,11.019,0,0,1,1.6.426,2.628,2.628,0,0,1,2.013,2.558,2.481,2.481,0,0,1-1.116,2.1,4.815,4.815,0,0,1-2.883.8A5.029,5.029,0,0,1,49.627-.25a3.561,3.561,0,0,1-1.455-1.169,2.716,2.716,0,0,1-.527-1.6h2.408a1.326,1.326,0,0,0,.5,1.037,1.987,1.987,0,0,0,1.248.36,1.839,1.839,0,0,0,1.1-.277A.861.861,0,0,0,53.279-2.628Zm3.709-2.215a5.64,5.64,0,0,1,.545-2.522A3.989,3.989,0,0,1,59.1-9.079a4.577,4.577,0,0,1,2.377-.606,4.33,4.33,0,0,1,3.142,1.178,4.727,4.727,0,0,1,1.358,3.2l.018.65a4.97,4.97,0,0,1-1.222,3.511A4.247,4.247,0,0,1,61.5.176a4.268,4.268,0,0,1-3.283-1.318,5.058,5.058,0,0,1-1.226-3.586Zm2.54.18a3.555,3.555,0,0,0,.51,2.073,1.682,1.682,0,0,0,1.459.717,1.686,1.686,0,0,0,1.441-.709,3.89,3.89,0,0,0,.519-2.267,3.519,3.519,0,0,0-.519-2.06,1.686,1.686,0,0,0-1.459-.731,1.658,1.658,0,0,0-1.441.726A3.955,3.955,0,0,0,59.528-4.662Zm12.12-.163a5.731,5.731,0,0,1,1-3.542,3.237,3.237,0,0,1,2.729-1.318,2.913,2.913,0,0,1,2.294,1.037V-13.5h2.549V0H77.924L77.8-1.011A2.989,2.989,0,0,1,75.357.176a3.228,3.228,0,0,1-2.694-1.323A5.916,5.916,0,0,1,71.648-4.825Zm2.54.189a3.754,3.754,0,0,0,.466,2.051,1.517,1.517,0,0,0,1.354.713,1.7,1.7,0,0,0,1.661-.995V-6.625a1.675,1.675,0,0,0-1.644-.995Q74.188-7.62,74.188-4.636ZM86.563.176a4.668,4.668,0,0,1-3.406-1.283,4.561,4.561,0,0,1-1.314-3.419v-.246A5.745,5.745,0,0,1,82.4-7.334a4.064,4.064,0,0,1,1.569-1.74,4.4,4.4,0,0,1,2.316-.611,3.947,3.947,0,0,1,3.072,1.23,5,5,0,0,1,1.121,3.489v1.037H84.419a2.36,2.36,0,0,0,.743,1.494,2.245,2.245,0,0,0,1.569.563,2.742,2.742,0,0,0,2.294-1.063l1.248,1.4A3.813,3.813,0,0,1,88.726-.277,5.075,5.075,0,0,1,86.563.176Zm-.29-7.813a1.587,1.587,0,0,0-1.226.512,2.651,2.651,0,0,0-.6,1.466h3.533v-.2a1.891,1.891,0,0,0-.457-1.311A1.638,1.638,0,0,0,86.273-7.638Z" transform="translate(382.877 5829.896)" fill="#008f85"/>
    <path id="Trazado_173959" data-name="Trazado 173959" d="M.483-4.021a4.776,4.776,0,0,1,.831-2.952,2.7,2.7,0,0,1,2.274-1.1A2.427,2.427,0,0,1,5.5-7.207V-11.25H7.625V0H5.713l-.1-.842A2.491,2.491,0,0,1,3.574.146a2.69,2.69,0,0,1-2.245-1.1A4.93,4.93,0,0,1,.483-4.021ZM2.6-3.863a3.128,3.128,0,0,0,.388,1.709,1.265,1.265,0,0,0,1.128.594A1.416,1.416,0,0,0,5.5-2.389V-5.521a1.4,1.4,0,0,0-1.37-.829Q2.6-6.35,2.6-3.863ZM12.913.146A3.89,3.89,0,0,1,10.074-.923,3.8,3.8,0,0,1,8.979-3.772v-.205a4.787,4.787,0,0,1,.461-2.135,3.386,3.386,0,0,1,1.307-1.45,3.669,3.669,0,0,1,1.93-.509,3.289,3.289,0,0,1,2.56,1.025,4.167,4.167,0,0,1,.934,2.908v.864H11.125a1.966,1.966,0,0,0,.619,1.245,1.871,1.871,0,0,0,1.307.469,2.285,2.285,0,0,0,1.912-.886L16-1.282A3.178,3.178,0,0,1,14.714-.231,4.229,4.229,0,0,1,12.913.146Zm-.242-6.511a1.323,1.323,0,0,0-1.022.427,2.209,2.209,0,0,0-.5,1.221h2.944v-.169a1.576,1.576,0,0,0-.381-1.092A1.365,1.365,0,0,0,12.671-6.365ZM21.665-2.19a.682.682,0,0,0-.385-.612,4.368,4.368,0,0,0-1.234-.4q-2.827-.593-2.827-2.4a2.178,2.178,0,0,1,.875-1.761,3.531,3.531,0,0,1,2.289-.707,3.8,3.8,0,0,1,2.413.71,2.239,2.239,0,0,1,.9,1.846H21.584a1.024,1.024,0,0,0-.293-.751,1.24,1.24,0,0,0-.916-.3,1.267,1.267,0,0,0-.828.242.763.763,0,0,0-.293.615.652.652,0,0,0,.333.568,3.428,3.428,0,0,0,1.124.374,9.183,9.183,0,0,1,1.333.355,2.19,2.19,0,0,1,1.677,2.131,2.067,2.067,0,0,1-.93,1.754,4.013,4.013,0,0,1-2.4.67,4.191,4.191,0,0,1-1.769-.355,2.968,2.968,0,0,1-1.212-.974A2.263,2.263,0,0,1,16.97-2.52h2.007a1.105,1.105,0,0,0,.417.864,1.656,1.656,0,0,0,1.04.3,1.533,1.533,0,0,0,.919-.231A.718.718,0,0,0,21.665-2.19Zm6.716.63a1.388,1.388,0,0,0,.952-.322,1.129,1.129,0,0,0,.381-.857H31.7a2.715,2.715,0,0,1-.439,1.476,2.9,2.9,0,0,1-1.183,1.04,3.7,3.7,0,0,1-1.659.37,3.44,3.44,0,0,1-2.681-1.08,4.275,4.275,0,0,1-.981-2.985v-.139A4.226,4.226,0,0,1,25.73-6.98,3.4,3.4,0,0,1,28.4-8.071a3.333,3.333,0,0,1,2.384.846A3,3,0,0,1,31.7-4.973H29.714a1.455,1.455,0,0,0-.381-1.005,1.27,1.27,0,0,0-.967-.387,1.275,1.275,0,0,0-1.117.539,3.125,3.125,0,0,0-.377,1.749v.22A3.164,3.164,0,0,0,27.246-2.1,1.291,1.291,0,0,0,28.381-1.56Zm4.2-2.476a4.7,4.7,0,0,1,.454-2.1A3.324,3.324,0,0,1,34.34-7.566a3.814,3.814,0,0,1,1.981-.505,3.609,3.609,0,0,1,2.618.981,3.939,3.939,0,0,1,1.132,2.666l.015.542A4.142,4.142,0,0,1,39.067-.956a3.539,3.539,0,0,1-2.732,1.1A3.556,3.556,0,0,1,33.6-.952,4.215,4.215,0,0,1,32.578-3.94Zm2.117.15a2.962,2.962,0,0,0,.425,1.727,1.4,1.4,0,0,0,1.216.6,1.4,1.4,0,0,0,1.2-.591,3.241,3.241,0,0,0,.432-1.889,2.933,2.933,0,0,0-.432-1.716,1.4,1.4,0,0,0-1.216-.609,1.382,1.382,0,0,0-1.2.605A3.3,3.3,0,0,0,34.695-3.885Zm8.679-4.039.066.886a2.785,2.785,0,0,1,2.278-1.033,2.114,2.114,0,0,1,2.1,1.208A2.721,2.721,0,0,1,50.2-8.071a2.364,2.364,0,0,1,1.919.751,3.451,3.451,0,0,1,.63,2.26V0H50.625V-5.054a1.509,1.509,0,0,0-.264-.985,1.169,1.169,0,0,0-.93-.311,1.321,1.321,0,0,0-1.318.908L48.12,0H46V-5.046a1.491,1.491,0,0,0-.271-1,1.18,1.18,0,0,0-.923-.308,1.372,1.372,0,0,0-1.3.747V0H41.389V-7.925ZM61.509-3.889a4.753,4.753,0,0,1-.831,2.933,2.665,2.665,0,0,1-2.245,1.1,2.469,2.469,0,0,1-1.941-.835V3.047H54.375V-7.925h1.963l.073.776a2.488,2.488,0,0,1,2.007-.923A2.683,2.683,0,0,1,60.7-6.987,4.882,4.882,0,0,1,61.509-4Zm-2.117-.154A3.119,3.119,0,0,0,59-5.75a1.276,1.276,0,0,0-1.139-.6,1.386,1.386,0,0,0-1.37.762v3.245a1.41,1.41,0,0,0,1.384.784Q59.392-1.56,59.392-4.043Zm3.1.007a4.7,4.7,0,0,1,.454-2.1,3.324,3.324,0,0,1,1.307-1.428,3.814,3.814,0,0,1,1.981-.505,3.609,3.609,0,0,1,2.618.981,3.939,3.939,0,0,1,1.132,2.666L70-3.882A4.142,4.142,0,0,1,68.979-.956a3.539,3.539,0,0,1-2.732,1.1,3.556,3.556,0,0,1-2.736-1.1A4.215,4.215,0,0,1,62.49-3.94Zm2.117.15a2.962,2.962,0,0,0,.425,1.727,1.4,1.4,0,0,0,1.216.6,1.4,1.4,0,0,0,1.2-.591,3.241,3.241,0,0,0,.432-1.889,2.933,2.933,0,0,0-.432-1.716,1.4,1.4,0,0,0-1.216-.609,1.382,1.382,0,0,0-1.2.605A3.3,3.3,0,0,0,64.607-3.885Zm10.986,1.7a.682.682,0,0,0-.385-.612,4.368,4.368,0,0,0-1.234-.4q-2.827-.593-2.827-2.4a2.178,2.178,0,0,1,.875-1.761,3.531,3.531,0,0,1,2.289-.707,3.8,3.8,0,0,1,2.413.71,2.239,2.239,0,0,1,.9,1.846H75.513a1.024,1.024,0,0,0-.293-.751,1.24,1.24,0,0,0-.916-.3,1.267,1.267,0,0,0-.828.242.763.763,0,0,0-.293.615.652.652,0,0,0,.333.568,3.428,3.428,0,0,0,1.124.374,9.183,9.183,0,0,1,1.333.355,2.19,2.19,0,0,1,1.677,2.131,2.067,2.067,0,0,1-.93,1.754,4.013,4.013,0,0,1-2.4.67A4.191,4.191,0,0,1,72.55-.209a2.968,2.968,0,0,1-1.212-.974A2.263,2.263,0,0,1,70.9-2.52h2.007a1.105,1.105,0,0,0,.417.864,1.656,1.656,0,0,0,1.04.3,1.533,1.533,0,0,0,.919-.231A.718.718,0,0,0,75.593-2.19ZM81.248,0H79.124V-7.925h2.124ZM79-9.976a1.042,1.042,0,0,1,.319-.784,1.2,1.2,0,0,1,.868-.308,1.2,1.2,0,0,1,.864.308,1.036,1.036,0,0,1,.322.784,1.039,1.039,0,0,1-.326.791,1.2,1.2,0,0,1-.861.308,1.2,1.2,0,0,1-.861-.308A1.039,1.039,0,0,1,79-9.976ZM86.287-1.56a1.388,1.388,0,0,0,.952-.322,1.129,1.129,0,0,0,.381-.857H89.6a2.715,2.715,0,0,1-.439,1.476,2.9,2.9,0,0,1-1.183,1.04,3.7,3.7,0,0,1-1.659.37,3.44,3.44,0,0,1-2.681-1.08,4.275,4.275,0,0,1-.981-2.985v-.139a4.226,4.226,0,0,1,.974-2.922,3.4,3.4,0,0,1,2.673-1.091,3.333,3.333,0,0,1,2.384.846A3,3,0,0,1,89.6-4.973H87.62a1.455,1.455,0,0,0-.381-1.005,1.27,1.27,0,0,0-.967-.387,1.275,1.275,0,0,0-1.117.539,3.125,3.125,0,0,0-.377,1.749v.22A3.164,3.164,0,0,0,85.151-2.1,1.291,1.291,0,0,0,86.287-1.56ZM93.047,0H90.923V-7.925h2.124ZM90.8-9.976a1.042,1.042,0,0,1,.319-.784,1.2,1.2,0,0,1,.868-.308,1.2,1.2,0,0,1,.864.308,1.036,1.036,0,0,1,.322.784,1.039,1.039,0,0,1-.326.791,1.2,1.2,0,0,1-.861.308,1.2,1.2,0,0,1-.861-.308A1.039,1.039,0,0,1,90.8-9.976Zm3.662,5.94a4.7,4.7,0,0,1,.454-2.1,3.324,3.324,0,0,1,1.307-1.428A3.814,3.814,0,0,1,98.2-8.071a3.609,3.609,0,0,1,2.618.981,3.939,3.939,0,0,1,1.132,2.666l.015.542A4.142,4.142,0,0,1,100.95-.956a3.539,3.539,0,0,1-2.732,1.1,3.556,3.556,0,0,1-2.736-1.1A4.215,4.215,0,0,1,94.46-3.94Zm2.117.15A2.962,2.962,0,0,0,97-2.158a1.4,1.4,0,0,0,1.216.6,1.4,1.4,0,0,0,1.2-.591,3.241,3.241,0,0,0,.432-1.889,2.933,2.933,0,0,0-.432-1.716A1.4,1.4,0,0,0,98.2-6.365,1.382,1.382,0,0,0,97-5.76,3.3,3.3,0,0,0,96.577-3.885Zm2.043-7.365h2.307L98.9-8.979H97.178Zm6.6,3.325.066.916a2.767,2.767,0,0,1,2.278-1.062,2.3,2.3,0,0,1,1.875.74,3.451,3.451,0,0,1,.63,2.212V0h-2.117V-5.068a1.373,1.373,0,0,0-.293-.978,1.312,1.312,0,0,0-.974-.3,1.456,1.456,0,0,0-1.34.762V0h-2.117V-7.925Z" transform="translate(382.877 5842.896)" fill="#1d272b"/>
    <rect id="Rectángulo_35428" data-name="Rectángulo 35428" width="3" height="34" transform="translate(375.877 5811.896)" fill="#d93328"/>
  </g>
</svg>
