<svg xmlns="http://www.w3.org/2000/svg" xmlns:xlink="http://www.w3.org/1999/xlink" width="79.155" height="79.153" viewBox="0 0 79.155 79.153">
  <defs>
    <radialGradient id="radial-gradient" cx="0.077" cy="0.019" r="1.465" gradientTransform="matrix(1, 0, 0, -1, 0, 9.666)" gradientUnits="objectBoundingBox">
      <stop offset="0" stop-color="#f4f4f5"/>
      <stop offset="0.477" stop-color="#f7f8fa"/>
      <stop offset="0.715" stop-color="#fff"/>
    </radialGradient>
  </defs>
  <g id="Grupo_133743" data-name="Grupo 133743" transform="translate(-647.543 -6929.424)">
    <g id="Group_87331" data-name="Group 87331" transform="translate(647.543 6929.424)">
      <g id="Group_18531" data-name="Group 18531">
        <g id="Group_18423" data-name="Group 18423">
          <g id="Group_18421" data-name="Group 18421">
            <g id="Group_18420" data-name="Group 18420">
              <g id="Group_18419" data-name="Group 18419">
                <path id="Path_40936" data-name="Path 40936" d="M201.954,554.407a39.577,39.577,0,1,1-39.578-39.575h0A39.576,39.576,0,0,1,201.954,554.407Z" transform="translate(-122.8 -514.832)" fill="#fff"/>
              </g>
            </g>
          </g>
          <path id="Path_40937" data-name="Path 40937" d="M201.953,554.407a39.42,39.42,0,1,0,0,.312Z" transform="translate(-122.799 -514.832)" fill="url(#radial-gradient)"/>
          <path id="Path_40938" data-name="Path 40938" d="M190.028,551.858a30.209,30.209,0,1,0-30.209,30.209h0a30.1,30.1,0,0,0,30.209-29.984Z" transform="translate(-120.122 -512.151)" fill="none" stroke="#1d272b" stroke-miterlimit="10" stroke-width="3"/>
          <g id="Group_18422" data-name="Group 18422" transform="translate(7.012 22.22)">
            <path id="Path_40939" data-name="Path 40939" d="M195.973,530.78a39.581,39.581,0,0,1-68.14,39.411,39.456,39.456,0,0,0,68.14-39.411Z" transform="translate(-127.833 -530.78)" fill="#e7e9eb"/>
          </g>
        </g>
      </g>
      <path id="Trazado_173952" data-name="Trazado 173952" d="M14.414,0a6.268,6.268,0,0,1-.566-1.895A6.83,6.83,0,0,1,8.516.391a7.5,7.5,0,0,1-5.146-1.8A5.779,5.779,0,0,1,1.328-5.937a5.972,5.972,0,0,1,2.49-5.156q2.49-1.8,7.2-1.816h2.6v-1.211a3.482,3.482,0,0,0-.752-2.344,2.958,2.958,0,0,0-2.373-.879,3.363,3.363,0,0,0-2.236.684,2.322,2.322,0,0,0-.811,1.875H1.8a5.67,5.67,0,0,1,1.133-3.4,7.488,7.488,0,0,1,3.2-2.451,11.674,11.674,0,0,1,4.648-.889,9.223,9.223,0,0,1,6.2,1.963,6.867,6.867,0,0,1,2.295,5.518v9.16a10.1,10.1,0,0,0,.84,4.551V0ZM9.746-3.926a4.861,4.861,0,0,0,2.3-.557,3.656,3.656,0,0,0,1.563-1.494V-9.609H11.5q-4.238,0-4.512,2.93l-.02.332a2.26,2.26,0,0,0,.742,1.738A2.883,2.883,0,0,0,9.746-3.926Z" transform="translate(29.457 50.576)" fill="#1d272b"/>
    </g>
  </g>
</svg>
